<mxfile host="app.diagrams.net" modified="2023-03-25T05:18:37.904Z" agent="Mozilla/5.0 (Windows NT 10.0; Win64; x64) AppleWebKit/537.36 (KHTML, like Gecko) Chrome/111.0.0.0 Safari/537.36" version="21.1.0" etag="oyfeMmvNfz9AgY2aGW-K" type="github">
  <diagram name="ページ1" id="9YOoJumzbDZjTToSctf0">
    <mxGraphModel>
      <root>
        <mxCell id="0" />
        <mxCell id="1" parent="0" />
      </root>
    </mxGraphModel>
  </diagram>
</mxfile>
